# File created by Blade
# Date/Time:  Thu Jan 22 19:18:16 2015
# Frame Rate: 120.000 fps
#------------------------------------------------------
:FULLY-SPECIFIED
:DEGREES
1405
root 1.193208 32.249603 0.130169 11.351878 -0.979003 2.119709
RightUpLeg -2.992649 -15.884090 -11.354083
RightLeg -0.886046 -0.000000 0.000000
RightFoot -11.033730 -4.593282 11.500216
RightToeBase 6.408859 -0.000000 -0.000000
LeftUpLeg -4.278590 11.456961 12.029781
LeftLeg 1.809549 -0.000000 -0.000000
LeftFoot -9.784642 2.720306 -26.901042
LeftToeBase 9.165266 -0.000000 -0.000000
Spine -9.470370 -1.616192 -0.234602
RightShoulder -23.624477 -16.669664 -26.228673
RightArm 16.178095 31.137198 35.625949
RightForeArm -14.731762 -0.000000 24.061317
RightHand 12.880869 -0.000000 2.458075
RightHandThumb1 -24.326973 -0.000000 -32.862282
LeftShoulder -28.216884 10.905989 26.983329
LeftArm 14.424802 -22.275187 -30.229062
LeftForeArm 25.909719 -0.000000 16.177119
LeftHand -3.497061 0.000000 -5.150642
LeftHandThumb1 -26.253704 0.000000 33.147579
Head -11.233779 2.487825 -2.286908
1406
root 1.194365 32.251745 0.128725 11.321240 -0.983969 2.110918
RightUpLeg -2.913646 -15.915898 -11.343409
RightLeg -1.024365 -0.000000 0.000000
RightFoot -10.925819 -4.634248 11.524191
RightToeBase 6.425330 -0.000000 -0.000000
LeftUpLeg -4.234787 11.552951 12.041853
LeftLeg 1.772005 -0.000000 -0.000000
LeftFoot -9.699778 2.634982 -26.881436
LeftToeBase 9.147307 -0.000000 -0.000000
Spine -9.485288 -1.723646 -0.203273
RightShoulder -23.591504 -16.513258 -26.432325
RightArm 16.243773 30.804325 35.210832
RightForeArm -14.596081 -0.000000 23.288720
RightHand 12.807142 -0.000000 2.412048
RightHandThumb1 -24.326973 -0.000000 -32.862282
LeftShoulder -28.131353 10.807466 27.251001
LeftArm 14.551855 -22.184738 -29.985614
LeftForeArm 26.036687 -0.000000 15.016585
LeftHand -3.425478 -0.000000 -5.000659
LeftHandThumb1 -26.253704 0.000000 33.147579
Head -11.133842 2.565525 -2.247935
1407
root 1.198333 32.253952 0.125975 11.311123 -1.030188 2.110627
RightUpLeg -2.868198 -15.934491 -11.351417
RightLeg -1.156585 -0.000000 0.000000
RightFoot -10.808238 -4.606796 11.569799
RightToeBase 6.414355 -0.000000 -0.000000
LeftUpLeg -4.175982 11.624084 12.035292
LeftLeg 1.691032 -0.000000 -0.000000
LeftFoot -9.626396 2.611395 -26.894503
LeftToeBase 9.140623 -0.000000 -0.000000
Spine -9.532407 -1.821248 -0.169912
RightShoulder -23.561899 -16.511958 -26.599275
RightArm 16.494402 30.682834 34.942929
RightForeArm -14.609094 -0.000000 22.480049
RightHand 12.811465 0.000000 2.484927
RightHandThumb1 -24.326973 -0.000000 -32.862282
LeftShoulder -28.063581 10.700108 27.491573
LeftArm 14.617210 -22.067380 -29.709262
LeftForeArm 26.103107 -0.000000 13.930985
LeftHand -3.282774 -0.000000 -4.814660
LeftHandThumb1 -26.253704 0.000000 33.147579
Head -10.994385 2.680713 -2.229747
1408
root 1.200808 32.256158 0.124170 11.307808 -1.090206 2.109042
RightUpLeg -2.836294 -15.979867 -11.358633
RightLeg -1.281382 -0.000000 0.000000
RightFoot -10.670799 -4.524892 11.553504
RightToeBase 6.384938 -0.000000 -0.000000
LeftUpLeg -4.127636 11.789187 12.018135
LeftLeg 1.628412 -0.000000 -0.000000
LeftFoot -9.542127 2.542996 -26.879460
LeftToeBase 9.107675 -0.000000 -0.000000
Spine -9.584778 -1.891913 -0.155750
RightShoulder -23.495823 -16.383776 -26.812152
RightArm 16.611151 30.445287 34.616447
RightForeArm -14.706693 -0.000000 21.636307
RightHand 12.844211 -0.000000 2.488685
RightHandThumb1 -24.326973 -0.000000 -32.862282
LeftShoulder -27.996097 10.584620 27.746054
LeftArm 14.707871 -22.104743 -29.507806
LeftForeArm 26.363208 -0.000000 12.875284
LeftHand -3.177407 -0.000000 -4.604265
LeftHandThumb1 -26.253704 0.000000 33.147579
Head -10.864622 2.784754 -2.181520
